<svg id="Capa_1" enable-background="new 0 0 512 512" height="512" viewBox="0 0 512 512" width="512" xmlns="http://www.w3.org/2000/svg"><g><path d="m416.463 38.333h-24.868l-13.592 71.75 14.305 57.223h65.462v23h30v-80.666c-.001-39.319-31.989-71.307-71.307-71.307z" fill="#282525"/><path d="m255.103 394.667h30v117.333h-30z" fill="#fdcb02"/><path d="m319.103 394.667h30v117.333h-30z" fill="#fdae02"/><g><path d="m392.308 0h-62.803c-9.949 0-19.587 1.806-28.554 5.139l-12.681 208.194 12.681 213.578c52.966-16.768 91.357-66.309 91.357-124.822v-110.089l-5.372-77.68 5.372-75.987z" fill="#f90"/><path d="m252.439 53.983-76.375 210.085 10.667 168.932h74.667c13.787 0 27.073-2.137 39.553-6.088v-421.773c-22.115 8.221-40.129 25.786-48.512 48.844z" fill="#fdae02"/></g><path d="m164.269 343.691-140.038 168.309h35.971c37.166 0 73.191-10.621 104.067-30.115z" fill="#fdae02"/><g><path d="m343.769 38.333c-15.854 0-30.583 4.805-42.819 13.033l-12.681 65.967 12.681 61.634c12.236 8.228 26.966 13.033 42.819 13.033h48.538v-153.667z" fill="#efe2dd"/><path d="m266.936 115.167c0 26.58 13.5 50.005 34.014 63.801v-127.602c-20.515 13.795-34.014 37.22-34.014 63.801z" fill="#f7f0eb"/></g><path d="m322.269 76.667h30v30h-30z" fill="#282525"/><g><path d="m235.54 223.195-87.105 199.159v89.646h15.519c75.539 0 136.995-61.455 136.995-136.994v-76.339c.001-38.365-28.482-70.189-65.409-75.472z" fill="#3e6efa"/><path d="m235.54 360.113v-136.918c-3.545-.507-7.164-.785-10.847-.785-42.048 0-76.257 34.209-76.257 76.257v123.687h24.864c34.319-.001 62.24-27.922 62.24-62.241z" fill="#4980fa"/></g></g></svg>