<svg version="1.1" xmlns="http://www.w3.org/2000/svg" xmlns:xlink="http://www.w3.org/1999/xlink" preserveAspectRatio="xMidYMid meet" viewBox="0 0 640 640" width="640" height="640"><defs><path d="M391.6 38.33L378 110.08L392.31 167.31L457.77 167.31L457.77 190.31L487.77 190.31C487.77 141.91 487.77 115.02 487.77 109.64C487.77 70.32 455.78 38.33 416.46 38.33C413.15 38.33 404.86 38.33 391.6 38.33Z" id="b1klTg8CQt"></path><path d="M255.1 394.67L285.1 394.67L285.1 512L255.1 512L255.1 394.67Z" id="b60ptwLQF3"></path><path d="M319.1 394.67L349.1 394.67L349.1 512L319.1 512L319.1 394.67Z" id="a5JMJc419"></path><path d="M392.31 0C354.63 0 333.69 0 329.51 0C319.56 0 309.92 1.81 300.95 5.14C300.11 19.02 295.88 88.42 288.27 213.33C295.88 341.48 300.11 412.67 300.95 426.91C353.92 410.14 392.31 360.6 392.31 302.09C392.31 294.75 392.31 258.05 392.31 192L386.94 114.32L392.31 38.33L392.31 0Z" id="b2zmgLDOQA"></path><path d="M176.06 264.07L186.73 433C231.53 433 256.42 433 261.4 433C275.19 433 288.47 430.86 300.95 426.91C300.95 384.73 300.95 47.32 300.95 5.14C278.84 13.36 260.82 30.92 252.44 53.98C252.44 53.98 226.98 124.01 176.06 264.07Z" id="a3t6jr7Ej"></path><path d="M164.27 343.69L24.23 512C45.81 512 57.8 512 60.2 512C97.37 512 133.39 501.38 164.27 481.89C164.27 463.46 164.27 417.39 164.27 343.69Z" id="gfuy4ZArf"></path><path d="M343.77 38.33C327.92 38.33 313.19 43.14 300.95 51.37C300.1 55.76 295.88 77.75 288.27 117.33C295.88 154.31 300.1 174.86 300.95 178.97C313.19 187.2 327.92 192 343.77 192C347 192 363.18 192 392.31 192L392.31 38.33C366.42 38.33 350.24 38.33 343.77 38.33Z" id="aDepxxLvJ"></path><path d="M300.95 178.97C300.95 166.21 300.95 64.13 300.95 51.37C280.44 65.16 266.94 88.59 266.94 115.17C266.94 141.75 280.44 165.17 300.95 178.97Z" id="a5u5al1KVK"></path><path d="M322.27 76.67L352.27 76.67L352.27 106.67L322.27 106.67L322.27 76.67Z" id="c43D8vtrAV"></path><path d="M100.02 85.35L17.26 41.39C12.7 49.97 10.17 54.73 9.66 55.69C-27.29 125.27 -0.62 212.01 69.12 249.05C76.17 252.79 132.56 282.74 139.6 286.48C175.03 305.3 218.34 294.66 241.28 263.24C222.45 239.52 175.36 180.22 100.02 85.35Z" id="a3fRcz2zi"></path><path d="M233.37 276.77C235.87 274.21 238.23 271.45 240.4 268.48C265.2 234.52 257.75 186.72 223.8 161.92C217.14 157.06 183.84 132.74 123.91 88.97C115.11 101.02 110.22 107.71 109.25 109.05C89.01 136.77 95.09 175.78 122.8 196.02C144.92 212.17 222.32 268.7 233.37 276.77Z" id="bvk0Z31xT"></path></defs><g><g><g><use xlink:href="#b1klTg8CQt" opacity="1" fill="#282525" fill-opacity="1"></use><g><use xlink:href="#b1klTg8CQt" opacity="1" fill-opacity="0" stroke="#000000" stroke-width="1" stroke-opacity="0"></use></g></g><g><use xlink:href="#b60ptwLQF3" opacity="1" fill="#fdcb02" fill-opacity="1"></use><g><use xlink:href="#b60ptwLQF3" opacity="1" fill-opacity="0" stroke="#000000" stroke-width="1" stroke-opacity="0"></use></g></g><g><use xlink:href="#a5JMJc419" opacity="1" fill="#fdae02" fill-opacity="1"></use><g><use xlink:href="#a5JMJc419" opacity="1" fill-opacity="0" stroke="#000000" stroke-width="1" stroke-opacity="0"></use></g></g><g><use xlink:href="#b2zmgLDOQA" opacity="1" fill="#ff9900" fill-opacity="1"></use><g><use xlink:href="#b2zmgLDOQA" opacity="1" fill-opacity="0" stroke="#000000" stroke-width="1" stroke-opacity="0"></use></g></g><g><use xlink:href="#a3t6jr7Ej" opacity="1" fill="#fdae02" fill-opacity="1"></use><g><use xlink:href="#a3t6jr7Ej" opacity="1" fill-opacity="0" stroke="#000000" stroke-width="1" stroke-opacity="0"></use></g></g><g><use xlink:href="#gfuy4ZArf" opacity="1" fill="#fdae02" fill-opacity="1"></use><g><use xlink:href="#gfuy4ZArf" opacity="1" fill-opacity="0" stroke="#000000" stroke-width="1" stroke-opacity="0"></use></g></g><g><use xlink:href="#aDepxxLvJ" opacity="1" fill="#efe2dd" fill-opacity="1"></use><g><use xlink:href="#aDepxxLvJ" opacity="1" fill-opacity="0" stroke="#000000" stroke-width="1" stroke-opacity="0"></use></g></g><g><use xlink:href="#a5u5al1KVK" opacity="1" fill="#f7f0eb" fill-opacity="1"></use><g><use xlink:href="#a5u5al1KVK" opacity="1" fill-opacity="0" stroke="#000000" stroke-width="1" stroke-opacity="0"></use></g></g><g><use xlink:href="#c43D8vtrAV" opacity="1" fill="#282525" fill-opacity="1"></use><g><use xlink:href="#c43D8vtrAV" opacity="1" fill-opacity="0" stroke="#000000" stroke-width="1" stroke-opacity="0"></use></g></g><g><use xlink:href="#a3fRcz2zi" opacity="1" fill="#3e6efa" fill-opacity="1"></use><g><use xlink:href="#a3fRcz2zi" opacity="1" fill-opacity="0" stroke="#000000" stroke-width="1" stroke-opacity="0"></use></g></g><g><use xlink:href="#bvk0Z31xT" opacity="1" fill="#4980fa" fill-opacity="1"></use><g><use xlink:href="#bvk0Z31xT" opacity="1" fill-opacity="0" stroke="#000000" stroke-width="1" stroke-opacity="0"></use></g></g></g></g></svg>